<?xml version="1.0" standalone="no"?>
<!DOCTYPE svg PUBLIC "-//W3C//DTD SVG 20010904//EN"
 "http://www.w3.org/TR/2001/REC-SVG-20010904/DTD/svg10.dtd">
<svg version="1.0" xmlns="http://www.w3.org/2000/svg"
 width="48.000000pt" height="48.000000pt" viewBox="0 0 48.000000 48.000000"
 preserveAspectRatio="xMidYMid meet">

<g transform="translate(0.000000,48.000000) scale(0.100000,-0.100000)"
fill="#ffffff" stroke="none">
<path d="M62 417 c-18 -18 -32 -42 -32 -53 0 -95 239 -334 335 -334 24 0 85
58 85 82 0 9 -23 31 -51 49 -48 30 -53 32 -86 20 -36 -13 -36 -13 -90 42 -55
54 -55 54 -42 90 12 33 10 38 -20 86 -19 29 -41 51 -50 51 -9 0 -31 -15 -49
-33z m82 -27 c31 -46 31 -53 10 -85 -16 -25 -15 -26 55 -96 l70 -70 30 17 c32
19 46 16 101 -26 l25 -19 -21 -28 c-12 -15 -31 -29 -43 -31 -82 -12 -321 222
-321 316 0 19 42 62 60 62 4 0 19 -18 34 -40z"/>
</g>
</svg>
