<?xml version="1.0" standalone="no"?>
<!DOCTYPE svg PUBLIC "-//W3C//DTD SVG 20010904//EN"
 "http://www.w3.org/TR/2001/REC-SVG-20010904/DTD/svg10.dtd">
<svg version="1.0" xmlns="http://www.w3.org/2000/svg"
 width="408.000000pt" height="401.000000pt" viewBox="0 0 408.000000 401.000000"
 preserveAspectRatio="xMidYMid meet">

<g transform="translate(0.000000,401.000000) scale(0.100000,-0.100000)"
fill="#ffffff" stroke="none">
<path d="M1251 3981 c-8 -14 -5 -23 9 -39 11 -12 20 -26 20 -32 0 -6 4 -9 9
-5 6 3 13 -11 17 -31 5 -25 9 -32 15 -22 6 8 7 0 3 -19 -4 -20 -2 -39 5 -47 7
-8 13 -39 14 -68 1 -32 8 -57 16 -64 10 -8 11 -13 3 -18 -7 -4 -12 -2 -12 5 0
9 -3 10 -10 3 -6 -6 -7 -30 -3 -59 5 -37 8 -44 14 -30 5 14 8 16 9 5 9 -72 9
-72 -6 -60 -11 10 -14 9 -14 -3 0 -9 6 -22 13 -29 6 -7 13 -26 15 -43 2 -20 0
-26 -6 -17 -8 11 -10 11 -15 -2 -3 -8 -2 -18 3 -21 6 -4 10 -16 10 -28 0 -18
-2 -19 -10 -7 -5 8 -10 10 -10 4 0 -5 5 -15 12 -22 8 -8 9 -12 1 -12 -6 0 -9
-9 -6 -21 4 -12 0 -25 -8 -30 -10 -6 -11 -11 -3 -19 6 -6 9 -23 6 -38 l-6 -27
-8 25 c-6 20 -7 17 -4 -12 3 -22 0 -39 -7 -42 -9 -3 -9 -5 1 -5 17 -1 15 -21
-3 -21 -8 0 -15 -4 -15 -10 0 -5 8 -6 17 -3 13 5 15 3 8 -13 -4 -10 -12 -46
-16 -79 -5 -33 -11 -71 -14 -85 -3 -14 -8 -38 -11 -55 -6 -35 -54 -80 -103
-96 -20 -7 -39 -17 -43 -23 -5 -6 -8 -7 -8 -1 0 6 -15 10 -34 11 -33 0 -33 -1
-24 -27 8 -23 6 -31 -11 -48 -12 -12 -26 -21 -32 -21 -6 0 -7 -5 -2 -12 4 -7
8 -22 8 -33 0 -11 5 -20 10 -20 6 -1 20 -6 32 -13 20 -11 25 -7 70 61 26 39
47 76 45 80 -1 5 2 6 7 3 5 -4 12 -2 16 4 3 5 12 10 18 10 12 0 15 -55 4 -67
-11 -10 -8 -63 3 -63 5 0 7 -7 3 -16 -4 -11 -8 -12 -13 -4 -4 7 -11 -17 -14
-54 -11 -99 -57 -152 -148 -171 -22 -4 -28 -11 -28 -30 0 -19 4 -23 18 -19 14
5 14 4 2 -4 -8 -6 -17 -9 -22 -6 -4 3 -5 -9 -3 -26 4 -33 4 -33 -19 -24 -9 3
-13 10 -10 15 3 5 10 7 15 4 5 -3 6 1 3 10 -6 14 -8 14 -24 -2 -9 -10 -13 -20
-8 -21 4 -2 5 -9 2 -14 -4 -7 -2 -8 4 -4 7 4 12 3 12 -3 0 -5 -6 -11 -12 -14
-7 -3 4 -12 26 -22 37 -16 39 -16 58 4 10 12 23 21 29 21 6 0 7 5 4 10 -3 6
-2 10 4 10 6 0 15 19 21 43 7 23 23 61 36 85 20 34 27 40 38 30 8 -7 10 -14 5
-16 -5 -2 -9 -54 -10 -115 0 -62 -4 -134 -10 -162 -5 -27 -12 -68 -16 -90 -5
-33 -20 -53 -80 -112 -40 -39 -73 -78 -73 -85 0 -10 3 -9 10 2 7 11 10 11 10
2 0 -7 6 -10 13 -7 6 4 2 -2 -9 -12 -16 -14 -19 -24 -13 -36 10 -17 -7 -67
-23 -67 -4 0 -8 -11 -8 -24 0 -14 -5 -28 -10 -31 -6 -3 -10 -15 -10 -26 0 -13
-4 -18 -12 -13 -7 4 -8 3 -4 -4 4 -6 2 -21 -5 -33 -8 -16 -8 -20 1 -14 6 4 22
31 35 60 15 35 33 58 51 66 15 8 29 21 32 29 3 12 2 12 -6 2 -7 -11 -10 -11
-15 2 -7 17 8 32 18 17 10 -17 35 0 35 23 0 15 3 17 9 7 7 -11 10 -11 15 0 3
8 3 4 0 -8 -8 -32 14 -29 26 3 14 35 13 95 0 74 -8 -13 -10 -12 -10 3 0 9 7
17 15 17 16 0 16 20 0 32 -6 5 -5 8 3 8 6 0 12 12 12 26 0 32 21 104 30 104
12 0 33 -239 27 -305 -3 -35 -18 -93 -32 -128 -14 -35 -25 -68 -25 -73 0 -5
-12 -27 -26 -48 -21 -31 -24 -40 -13 -47 20 -12 29 -11 29 4 0 8 4 7 10 -3 5
-8 9 -22 9 -30 0 -10 -3 -8 -10 5 -7 15 -7 11 -3 -14 4 -23 3 -31 -5 -27 -6 4
-11 2 -11 -3 0 -6 4 -11 8 -11 4 0 6 -16 4 -35 -2 -19 0 -35 4 -35 5 0 10 10
10 23 3 58 10 83 29 102 11 11 23 19 26 18 3 -1 6 4 6 12 0 10 -5 11 -19 4
-20 -11 -24 1 -6 19 20 20 36 14 40 -15 2 -16 2 42 0 127 l-3 155 39 -110 c22
-60 49 -136 61 -169 18 -48 22 -77 20 -160 -1 -55 -7 -104 -12 -107 -5 -4 -5
-9 2 -13 6 -4 14 7 20 26 l10 33 -1 -40 c-1 -22 5 -60 11 -84 10 -33 10 -46 1
-51 -8 -5 -6 -9 6 -14 9 -3 18 -5 19 -4 1 2 -1 29 -4 61 -4 31 -3 57 1 57 4 0
8 4 8 10 0 5 -7 7 -15 4 -8 -4 -15 -1 -15 5 0 6 4 11 9 11 5 0 3 24 -5 53 -7
28 -14 72 -14 97 l0 45 21 -35 c12 -19 24 -37 28 -40 10 -7 115 -168 140 -213
12 -21 21 -44 21 -52 0 -8 5 -15 11 -15 6 0 9 -6 6 -14 -3 -8 1 -17 10 -20 8
-4 13 -13 9 -21 -3 -8 -1 -15 4 -15 6 0 10 -7 10 -15 0 -7 8 -19 18 -24 13 -8
14 -10 2 -11 -9 0 -4 -9 15 -24 27 -21 28 -25 15 -42 -14 -18 -14 -18 4 -4 18
14 19 13 13 -2 -4 -13 -1 -18 9 -18 10 0 14 6 11 15 -4 8 -2 17 3 20 18 11 10
23 -10 18 -13 -4 -22 1 -26 13 -11 35 -29 69 -46 88 -10 11 -19 26 -19 33 -3
29 -5 33 -19 50 -8 10 -16 25 -16 33 -1 8 -5 24 -10 35 -8 19 0 14 104 -72 15
-13 32 -23 39 -23 6 0 18 -8 25 -18 17 -24 53 -43 63 -34 5 4 5 1 1 -6 -5 -8
1 -16 16 -21 13 -6 20 -10 16 -10 -12 -2 98 -161 111 -161 4 0 7 10 8 23 0 12
-1 16 -4 10 -6 -17 -23 -17 -23 0 0 27 33 12 95 -42 35 -31 81 -71 104 -89 23
-18 39 -38 35 -43 -3 -5 -1 -16 6 -24 6 -8 10 -24 8 -36 -4 -28 15 -35 37 -12
17 16 17 16 11 -3 -5 -17 1 -21 50 -32 31 -8 57 -12 59 -10 2 2 -12 14 -31 28
-18 14 -34 30 -34 37 0 18 -30 44 -42 37 -7 -5 -9 0 -6 14 4 13 2 19 -6 16 -7
-3 -24 6 -39 20 -14 13 -28 21 -31 18 -3 -3 -6 2 -6 11 0 10 -5 14 -14 11 -9
-3 -40 18 -78 52 -71 66 -77 74 -51 74 17 1 17 1 -1 15 -26 20 -40 19 -31 -2
3 -10 -7 -3 -24 16 -17 19 -45 46 -63 61 -27 23 -29 27 -14 33 9 4 15 3 12 -2
-6 -10 44 -32 139 -62 71 -22 68 -22 59 -7 -5 8 -2 9 12 4 10 -5 25 -9 32 -9
6 0 12 -4 12 -9 0 -5 5 -6 10 -3 6 3 10 1 10 -5 0 -6 4 -8 10 -5 5 3 20 -1 32
-9 12 -9 29 -16 36 -16 7 0 20 -7 29 -16 9 -8 22 -13 29 -10 7 3 16 1 19 -4 3
-5 21 -17 40 -26 19 -9 35 -20 35 -25 0 -5 7 -9 15 -9 8 0 15 -4 15 -10 0 -5
7 -10 16 -10 8 0 13 4 10 9 -4 5 3 6 16 2 13 -4 51 -15 86 -26 34 -10 62 -22
62 -26 0 -5 6 -6 14 -3 7 3 26 -6 42 -19 16 -13 35 -22 42 -20 6 3 12 0 12 -6
0 -6 9 -11 21 -11 14 0 19 -5 16 -14 -4 -10 -1 -13 9 -9 10 4 12 0 7 -13 -5
-13 -3 -15 8 -9 12 8 12 6 0 -8 -7 -9 -18 -14 -25 -10 -6 3 -8 3 -4 -2 13 -13
68 -11 68 3 0 6 4 12 10 12 5 0 9 -6 7 -12 -1 -9 20 -14 77 -16 l79 -3 -49 45
c-27 25 -54 45 -61 46 -6 0 -14 6 -16 13 -4 9 -8 8 -16 -3 -9 -12 -11 -11 -11
8 0 13 -6 22 -16 22 -9 0 -12 5 -8 12 5 7 3 8 -6 3 -10 -6 -9 -11 5 -22 11 -7
13 -13 6 -13 -7 0 -9 -4 -6 -10 3 -5 1 -10 -4 -10 -6 0 -11 5 -11 11 0 6 -11
8 -28 5 -19 -5 -44 2 -82 20 -77 37 -104 48 -114 45 -15 -4 -141 52 -128 57 7
2 12 8 12 13 0 4 -6 6 -13 3 -8 -3 -47 10 -88 29 l-74 34 50 -4 c28 -2 118 4
200 13 167 18 170 19 205 9 25 -6 25 -6 3 7 -24 14 -17 44 8 36 8 -3 29 2 48
9 26 11 36 12 41 2 5 -8 10 -5 14 9 4 11 17 22 28 24 12 2 23 8 25 14 2 7 -6
10 -22 7 -14 -3 -25 -1 -25 4 0 5 -6 10 -12 10 -7 0 -29 3 -48 6 l-35 7 40
-20 40 -20 -32 3 c-17 2 -32 1 -31 -2 3 -27 -6 -31 -16 -7 l-13 29 -21 -21
c-25 -25 -79 -55 -107 -59 -11 -2 -41 -7 -66 -13 -74 -15 -222 -23 -284 -15
-55 6 -56 7 -32 20 14 7 52 16 85 20 49 5 64 12 77 31 8 13 21 24 28 24 8 0 7
-4 -3 -10 -10 -6 -11 -10 -2 -10 6 0 12 -7 12 -15 0 -8 4 -15 9 -15 21 0 41
13 41 28 0 12 -4 12 -22 -4 -12 -10 -18 -13 -14 -6 4 6 2 12 -3 12 -6 0 -10 6
-9 12 3 15 52 38 92 43 31 4 48 15 25 15 -16 1 60 30 78 30 9 0 7 -6 -4 -19
-9 -11 -20 -18 -23 -16 -4 2 -12 -8 -19 -23 -11 -25 -10 -26 4 -8 15 19 15 19
15 -2 0 -25 -26 -29 -63 -11 -20 9 -20 9 -5 -4 10 -8 14 -17 10 -22 -10 -10
35 3 85 25 23 11 47 28 55 38 7 10 31 31 53 47 22 16 45 34 50 39 6 6 26 24
45 40 l35 29 -70 -7 c-38 -4 -72 -11 -73 -17 -3 -6 -10 -5 -20 3 -10 9 -16 10
-19 2 -2 -6 -14 -9 -27 -7 -13 3 -30 -2 -38 -11 -9 -8 -19 -12 -24 -8 -5 4 -2
-1 5 -11 8 -10 17 -14 20 -9 3 6 12 4 19 -4 11 -12 10 -14 -5 -15 -10 -1 -22
0 -28 1 -5 1 -7 -2 -2 -6 4 -4 -11 -16 -34 -27 -34 -15 -43 -16 -51 -5 -8 10
-8 9 -4 -5 3 -9 1 -17 -3 -17 -5 0 -17 -3 -26 -6 -11 -5 -16 -2 -15 7 4 25 0
39 -10 39 -5 0 -7 -7 -4 -15 4 -8 2 -15 -4 -15 -6 0 -12 5 -14 12 -3 7 -7 6
-11 -5 -5 -12 -1 -17 13 -17 11 0 20 -5 20 -11 0 -5 -4 -8 -9 -5 -5 3 -12 -1
-15 -10 -4 -9 -9 -14 -12 -11 -3 3 -16 2 -29 -3 -15 -6 -27 -4 -34 3 -9 9 -11
8 -5 -7 5 -13 4 -17 -4 -12 -6 4 -26 0 -43 -9 -46 -24 -136 -46 -194 -46 -36
-1 -82 11 -160 40 -60 23 -111 41 -114 41 -3 0 1 5 9 10 8 5 30 10 48 10 20 0
31 4 27 10 -3 5 3 10 14 10 11 0 23 5 26 10 3 5 1 10 -4 10 -6 0 -11 7 -11 15
0 8 -5 15 -11 15 -5 0 -8 -4 -5 -8 9 -15 -11 -33 -38 -36 -20 -3 -24 0 -17 7
17 17 13 26 -9 20 -11 -3 -20 -13 -21 -22 0 -9 -3 -11 -5 -5 -2 6 -17 9 -32 7
-18 -3 -55 10 -108 36 -63 32 -98 58 -153 116 -39 41 -71 80 -71 86 0 5 5 7
10 4 22 -13 115 -23 128 -13 8 7 12 7 12 -2 0 -7 7 -10 15 -6 8 3 15 0 15 -7
0 -9 3 -8 9 1 5 9 21 11 49 8 23 -3 42 -1 42 4 0 4 -11 7 -25 5 -14 -1 -25 1
-25 5 0 13 26 19 51 13 14 -4 20 -2 16 4 -5 7 1 9 15 5 14 -3 19 -2 14 6 -4 7
-1 12 8 12 9 0 16 -5 16 -11 0 -5 5 -7 10 -4 6 3 10 -2 10 -13 0 -10 3 -21 6
-25 9 -9 35 4 28 14 -3 5 -2 23 1 41 5 20 10 26 15 18 4 -7 13 -10 19 -6 6 4
9 2 5 -7 -10 -27 20 -38 60 -22 36 15 41 35 8 35 -15 0 -15 -2 -2 -10 12 -7 8
-10 -15 -10 -24 0 -31 4 -31 20 0 10 2 17 5 15 2 -3 10 0 18 6 8 7 13 8 13 1
0 -14 38 -22 44 -8 2 6 5 3 5 -7 1 -14 4 -15 20 -5 11 7 18 15 16 19 -3 4 8 9
23 12 16 3 39 14 52 25 l23 19 -39 1 c-43 2 -71 6 -94 15 -8 3 -28 8 -44 12
-26 5 -28 4 -24 -19 4 -17 1 -23 -9 -19 -7 3 -13 -2 -13 -11 0 -9 -5 -16 -11
-16 -6 0 -8 9 -3 22 6 21 5 21 -10 6 -9 -10 -15 -23 -14 -30 2 -10 -14 -13
-64 -12 -37 0 -65 -3 -63 -7 3 -4 -7 -17 -22 -28 -20 -17 -28 -19 -34 -9 -6 8
-3 14 7 16 11 3 12 7 4 17 -9 11 -14 11 -29 -3 -10 -9 -16 -21 -13 -26 3 -5
-6 -6 -19 -3 -22 5 -22 5 -6 -7 16 -12 16 -14 1 -20 -27 -10 -122 -7 -130 5
-3 6 -14 9 -24 6 -11 -3 -21 2 -25 11 -5 14 -7 14 -15 2 -8 -13 -10 -13 -10 1
0 23 -46 64 -54 47 -3 -7 -3 -2 0 11 4 16 2 21 -5 17 -6 -4 -9 -1 -5 7 3 8 -2
20 -11 27 -8 7 -15 20 -15 29 0 9 -7 26 -15 38 -8 11 -19 33 -25 47 -8 21 -7
26 6 26 8 0 12 -4 9 -10 -3 -5 3 -10 14 -10 12 0 21 -5 21 -11 0 -5 5 -7 10
-4 5 3 10 2 10 -3 0 -6 8 -8 18 -6 50 12 108 9 119 -6 8 -10 12 -11 13 -3 0 7
18 21 40 32 l40 19 0 -24 c0 -13 5 -24 10 -24 6 0 10 -6 10 -14 0 -21 15 -28
17 -8 1 9 3 26 6 37 2 11 2 14 0 7 -6 -16 -25 -11 -31 9 -3 11 -2 11 7 -1 9
-13 11 -13 11 3 0 21 13 22 30 3 6 -8 20 -16 30 -18 17 -3 17 -5 4 -23 -12
-16 -17 -17 -23 -7 -6 10 -10 9 -14 -7 -7 -26 3 -27 37 0 14 11 30 18 36 14 5
-3 12 5 15 18 4 13 13 24 20 24 8 0 12 -4 9 -8 -10 -17 17 -18 61 -3 29 9 58
13 78 8 30 -6 31 -6 17 12 -8 11 -15 20 -16 22 -1 2 -30 12 -64 22 -53 16 -61
16 -56 3 4 -9 1 -13 -6 -10 -7 2 -12 11 -10 20 3 21 -17 32 -31 18 -9 -9 -7
-10 7 -5 16 6 18 4 13 -10 -4 -10 -7 -21 -7 -24 0 -4 -5 0 -10 8 -8 13 -10 13
-10 -1 0 -11 -9 -16 -25 -16 -13 0 -22 3 -19 8 3 5 1 9 -5 9 -5 0 -11 -5 -13
-11 -2 -7 -11 -5 -23 7 -17 17 -17 19 -2 22 9 2 17 10 17 19 0 10 6 14 20 10
11 -3 20 -1 20 4 0 13 -80 10 -114 -4 -26 -11 -27 -14 -12 -26 11 -10 16 -10
16 -2 0 8 5 7 15 -3 20 -20 19 -26 -5 -21 -11 2 -20 0 -20 -6 0 -5 6 -9 13
-10 6 0 2 -4 -11 -9 -12 -5 -30 -6 -39 -3 -11 4 -14 3 -9 -6 6 -8 1 -10 -17
-6 -14 4 -28 2 -31 -4 -9 -14 -56 -14 -56 0 0 5 -5 7 -12 3 -6 -4 -8 -3 -4 4
3 6 2 13 -3 16 -5 3 -11 0 -14 -8 -13 -34 -110 14 -140 69 -12 23 -46 170 -47
202 0 22 1 22 19 6 11 -9 17 -21 14 -27 -3 -6 -3 -8 2 -4 4 4 14 3 22 -3 9 -9
13 -8 13 0 0 6 5 11 10 11 6 0 10 -9 10 -20 0 -23 15 -27 23 -6 4 9 34 15 109
18 57 3 112 9 123 13 16 5 17 5 5 -4 -13 -9 -13 -11 0 -12 8 -1 17 -1 20 -1 3
0 11 -6 18 -14 11 -12 10 -14 -3 -14 -8 0 -15 -4 -15 -10 0 -5 -9 -10 -20 -10
-11 0 -20 -4 -20 -8 0 -14 34 -10 52 5 9 8 21 12 27 9 5 -4 13 -1 18 6 4 7 19
14 33 15 52 3 144 14 147 17 9 9 -131 86 -159 87 -30 1 -31 2 -8 8 22 6 23 8
7 14 -11 4 -24 4 -29 1 -6 -4 -17 1 -24 11 -18 25 -27 14 -15 -17 7 -18 6 -25
-2 -25 -34 1 -46 -4 -41 -17 3 -8 1 -17 -5 -21 -6 -3 -11 -1 -11 4 0 6 -7 11
-15 11 -8 0 -14 -5 -13 -12 2 -6 -6 -13 -17 -15 -16 -3 -17 -2 -5 6 23 16 -3
13 -37 -4 -39 -19 -115 -13 -171 15 -63 31 -91 96 -99 230 -3 55 -2 100 2 100
4 0 16 -11 27 -25 11 -14 23 -23 28 -20 11 7 89 -23 111 -42 17 -14 33 -18 25
-5 -3 5 41 9 97 9 56 0 94 -1 84 -4 -9 -2 -15 -9 -11 -14 3 -5 10 -7 15 -3 6
3 18 -1 28 -10 11 -10 33 -15 57 -15 21 1 55 -2 74 -6 33 -7 34 -7 20 11 -43
57 -85 94 -102 88 -12 -4 -16 -1 -13 8 3 8 -7 21 -24 31 -36 21 -42 21 -34 2
3 -9 8 -13 11 -11 6 7 32 -13 32 -24 0 -8 -52 -23 -66 -20 -4 1 -10 -4 -15
-12 -5 -8 -7 -2 -5 16 2 15 9 32 17 38 11 8 10 9 -4 4 -10 -3 -21 -6 -23 -6
-2 0 -4 -8 -4 -17 0 -15 -2 -16 -10 -3 -5 8 -10 10 -10 4 0 -5 5 -15 11 -21 9
-9 5 -14 -15 -19 -35 -8 -97 2 -108 18 -6 11 -8 11 -8 0 0 -9 -5 -10 -16 -4
-9 5 -26 7 -38 5 -18 -4 -19 -3 -6 7 12 9 11 10 -7 5 -20 -5 -23 -3 -23 19 0
14 -5 26 -11 26 -6 0 -8 -7 -5 -16 4 -11 1 -14 -11 -12 -9 2 -18 10 -20 18 -4
13 -3 13 7 0 10 -13 11 -13 7 0 -2 8 -11 14 -20 14 -9 -1 -15 1 -14 5 0 3 -5
17 -13 31 -10 19 -14 63 -12 179 0 85 5 158 10 163 14 14 77 -25 80 -50 4 -24
18 -29 24 -10 3 7 10 8 17 4 11 -7 11 -10 0 -18 -11 -7 -9 -8 6 -7 23 3 89
-24 99 -40 4 -6 12 -11 17 -11 6 0 7 5 4 10 -3 6 1 10 10 10 9 0 15 -6 13 -12
-4 -12 14 -38 26 -38 4 0 4 10 1 23 -5 19 -2 22 24 22 16 0 27 -3 24 -7 -2 -5
-11 -8 -19 -8 -8 0 -14 -3 -14 -7 1 -13 38 -53 49 -53 6 0 11 -7 11 -15 0 -11
5 -12 23 -6 13 5 36 7 53 4 22 -4 26 -2 14 6 -23 16 49 2 77 -15 33 -21 34
-18 11 22 -11 20 -30 40 -42 44 -12 5 -15 9 -8 9 6 1 12 8 12 17 0 13 -3 14
-13 5 -10 -8 -18 -7 -32 3 -21 15 -12 38 13 30 14 -5 15 -4 2 5 -8 6 -24 8
-35 5 -15 -4 -17 -3 -6 4 19 13 6 42 -18 42 -14 0 -23 -9 -27 -27 -10 -46 -14
-50 -11 -10 2 26 -1 37 -11 37 -9 0 -11 -7 -7 -20 3 -11 2 -28 -4 -37 -8 -15
-10 -13 -8 11 1 20 -3 29 -15 31 -18 3 -30 -17 -22 -38 5 -14 -40 -22 -59 -10
-6 4 -23 8 -36 9 -14 2 -27 8 -29 14 -2 5 -15 10 -28 10 -13 0 -24 5 -24 11 0
6 6 9 14 6 10 -4 14 0 11 13 -2 11 0 22 6 25 5 4 9 -1 9 -9 0 -8 4 -17 9 -20
5 -3 9 5 9 18 0 14 -6 23 -17 23 -16 0 -50 -27 -34 -27 4 0 0 -5 -10 -11 -22
-13 -51 6 -43 28 4 9 -3 13 -19 13 -13 0 -34 10 -46 23 -19 20 -20 29 -14 107
3 47 13 113 22 147 15 61 16 62 36 48 12 -8 29 -15 39 -15 10 0 18 -6 18 -14
0 -8 5 -18 11 -22 8 -4 9 0 4 15 -5 16 -3 20 9 15 9 -3 16 -10 16 -16 0 -5 4
-7 9 -4 5 3 12 -1 15 -10 9 -24 7 -28 -9 -14 -11 10 -18 9 -30 -4 -9 -9 -12
-16 -6 -16 5 0 13 5 16 11 5 7 15 4 29 -9 24 -22 53 -25 53 -6 0 7 -6 10 -12
7 -12 -4 -30 25 -21 34 9 9 46 -18 47 -35 1 -11 4 -8 9 8 4 14 8 20 9 13 1 -6
10 -9 21 -6 15 4 20 0 21 -13 0 -18 1 -18 9 1 5 11 9 15 9 8 1 -6 14 -14 30
-18 16 -3 33 -16 39 -30 7 -15 17 -22 26 -19 11 4 13 0 9 -15 -4 -15 -1 -21
11 -21 9 0 21 -10 26 -22 5 -13 9 -20 9 -15 1 4 14 -7 31 -25 l29 -33 1 52 c0
28 -4 55 -10 58 -5 3 -10 15 -10 26 0 10 -5 19 -11 19 -5 0 -7 -4 -4 -10 3 -5
0 -10 -9 -10 -22 0 -46 11 -46 22 0 5 5 6 10 3 6 -3 10 -1 10 4 0 6 -7 11 -15
11 -8 0 -15 5 -15 11 0 5 -4 8 -10 4 -5 -3 -18 3 -30 15 -11 11 -26 20 -32 20
-9 0 -8 -4 2 -11 15 -10 12 -10 -47 6 -28 7 -105 21 -136 24 -4 1 -3 11 3 24
11 22 11 22 -6 2 -11 -14 -18 -16 -21 -7 -3 6 -9 10 -13 7 -5 -3 -28 6 -51 21
l-41 26 5 51 c4 29 11 88 16 132 29 234 33 301 29 445 -6 168 -24 246 -82 345
-29 49 -40 55 -55 26z m112 -377 c-6 -17 -23 -9 -23 11 0 8 6 12 14 9 8 -3 12
-12 9 -20z m-96 -826 c-3 -8 -6 -5 -6 6 -1 11 2 17 5 13 3 -3 4 -12 1 -19z
m-157 -38 c9 -16 8 -20 -5 -20 -9 0 -13 5 -10 10 3 6 1 10 -4 10 -6 0 -11 5
-11 10 0 17 19 11 30 -10z m7 -72 c-3 -7 -5 -2 -5 12 0 14 2 19 5 13 2 -7 2
-19 0 -25z m-17 -15 c0 -23 -17 -49 -25 -41 -4 3 -2 16 4 27 10 17 9 20 -4 15
-8 -3 -12 -10 -9 -15 3 -5 1 -9 -5 -9 -5 0 -9 9 -8 20 2 26 47 29 47 3z m590
-127 c0 -8 5 -16 12 -18 7 -3 5 -7 -6 -11 -10 -4 -15 -3 -11 3 3 6 2 10 -3 10
-5 0 -9 7 -9 15 0 8 4 15 9 15 4 0 8 -6 8 -14z m1 -55 c4 0 10 -9 14 -18 5
-15 4 -16 -6 -5 -7 6 -20 12 -28 12 -13 0 -13 -2 -2 -9 10 -7 11 -13 2 -30
-11 -19 -14 -20 -27 -6 -9 8 -19 15 -24 15 -4 0 -11 7 -14 16 -4 12 -2 15 9
10 8 -3 15 0 15 7 0 11 29 15 61 8z m-596 -201 c-3 -5 -14 -10 -23 -9 -14 0
-13 2 3 9 27 11 27 11 20 0z m-35 -31 c0 -5 -7 -9 -15 -9 -9 0 -12 6 -9 15 6
15 24 11 24 -6z m644 -324 c3 -8 1 -15 -4 -15 -6 0 -10 7 -10 15 0 8 2 15 4
15 2 0 6 -7 10 -15z m73 -11 c-3 -3 -12 -4 -19 -1 -8 3 -5 6 6 6 11 1 17 -2
13 -5z m-68 -78 c-3 -3 -11 5 -18 17 -13 21 -12 21 5 5 10 -10 16 -20 13 -22z
m-625 -1 c-9 -14 -20 -25 -25 -25 -5 0 1 11 13 25 12 14 23 25 25 25 2 0 -4
-11 -13 -25z m669 -240 c-3 -9 -8 -14 -10 -11 -3 3 -2 9 2 15 9 16 15 13 8 -4z
m70 8 c-7 -3 -13 -11 -13 -19 0 -9 -4 -12 -10 -9 -18 11 -10 31 13 32 12 0 16
-1 10 -4z m304 -189 c-3 -3 -12 -4 -19 -1 -8 3 -5 6 6 6 11 1 17 -2 13 -5z
m-646 -51 c13 -16 12 -17 -3 -4 -10 7 -18 15 -18 17 0 8 8 3 21 -13z m426 -55
c-3 -7 -5 -2 -5 12 0 14 2 19 5 13 2 -7 2 -19 0 -25z m849 -167 c-3 -5 -23 -9
-43 -9 -29 0 -33 2 -18 9 28 11 67 11 61 0z m-46 -51 c0 -5 -2 -10 -4 -10 -3
0 -8 5 -11 10 -3 6 -1 10 4 10 6 0 11 -4 11 -10z m34 3 c-5 -5 -12 -12 -16
-18 -4 -6 -8 -2 -8 8 0 9 7 17 17 17 9 0 12 -3 7 -7z m-74 -73 c0 -5 -2 -10
-4 -10 -3 0 -8 5 -11 10 -3 6 -1 10 4 10 6 0 11 -4 11 -10z m107 -52 c-3 -8
-6 -5 -6 6 -1 11 2 17 5 13 3 -3 4 -12 1 -19z m-363 0 c-3 -4 -9 -8 -15 -8 -5
0 -9 4 -9 8 0 5 7 9 15 9 8 0 12 -4 9 -9z m-164 -366 c0 -15 -2 -15 -10 -2
-13 20 -13 33 0 25 6 -3 10 -14 10 -23z m608 7 c-19 -13 -28 -11 -28 5 0 9 7
12 21 9 16 -4 17 -8 7 -14z"/>
<path d="M1231 3922 c-1 -12 12 -49 28 -80 16 -32 37 -84 46 -115 9 -31 18
-57 20 -57 1 0 6 7 9 16 3 8 2 12 -4 9 -6 -3 -10 1 -10 9 0 21 -28 103 -52
151 -11 22 -24 51 -28 65 -8 24 -8 24 -9 2z"/>
<path d="M1565 2980 c-4 -6 -15 -8 -25 -5 -15 5 -17 2 -13 -15 3 -11 9 -23 14
-26 5 -3 6 3 2 13 -3 10 -3 15 2 11 8 -8 40 20 32 28 -3 3 -8 0 -12 -6z"/>
<path d="M1425 2960 c-4 -6 3 -10 14 -10 25 0 27 6 6 13 -8 4 -17 2 -20 -3z"/>
<path d="M1491 2944 c0 -11 3 -14 6 -6 3 7 2 16 -1 19 -3 4 -6 -2 -5 -13z"/>
<path d="M1660 2956 c0 -2 7 -7 16 -10 8 -3 12 -2 9 4 -6 10 -25 14 -25 6z"/>
<path d="M1667 2919 c7 -7 15 -10 18 -7 3 3 -2 9 -12 12 -14 6 -15 5 -6 -5z"/>
<path d="M1590 2916 c0 -2 7 -7 16 -10 8 -3 12 -2 9 4 -6 10 -25 14 -25 6z"/>
<path d="M1735 2880 c-3 -5 1 -10 10 -10 9 0 13 5 10 10 -3 6 -8 10 -10 10 -2
0 -7 -4 -10 -10z"/>
<path d="M1610 2831 c0 -6 4 -13 10 -16 6 -3 7 1 4 9 -7 18 -14 21 -14 7z"/>
<path d="M1455 2820 c-3 -5 -1 -10 4 -10 6 0 11 5 11 10 0 6 -2 10 -4 10 -3 0
-8 -4 -11 -10z"/>
<path d="M1564 2814 c4 -14 1 -28 -9 -38 -15 -14 -15 -16 -1 -16 9 0 16 6 16
14 0 8 4 16 9 18 5 2 3 12 -6 23 -15 20 -15 20 -9 -1z"/>
<path d="M1500 2770 c0 -5 5 -10 10 -10 6 0 10 5 10 10 0 6 -4 10 -10 10 -5 0
-10 -4 -10 -10z"/>
<path d="M1628 2758 c2 -10 8 -18 12 -18 4 0 10 8 12 18 3 12 -1 18 -12 18
-11 0 -15 -6 -12 -18z"/>
<path d="M1678 2768 c-7 -18 37 -44 47 -28 6 9 -1 11 -22 9 -4 0 -10 7 -13 17
-6 15 -7 15 -12 2z"/>
<path d="M1030 2755 c7 -8 17 -12 22 -9 6 4 5 10 -3 15 -22 14 -33 10 -19 -6z"/>
<path d="M926 2741 c-4 -5 3 -7 14 -4 23 6 26 13 6 13 -8 0 -17 -4 -20 -9z"/>
<path d="M859 2716 c-1 -3 -3 -10 -4 -16 -1 -5 -3 -15 -4 -21 0 -6 -10 -9 -21
-6 -11 3 -20 1 -20 -4 0 -12 27 -11 53 2 31 16 31 16 13 34 -9 9 -17 14 -17
11z"/>
<path d="M986 2649 c-10 -10 -21 -17 -25 -17 -13 4 -51 -14 -51 -23 0 -6 -4
-7 -10 -4 -5 3 -18 1 -27 -4 -10 -6 -13 -11 -8 -11 6 0 -3 -11 -20 -25 -16
-13 -25 -24 -18 -25 6 0 15 5 18 10 4 6 10 8 15 5 4 -3 13 2 20 10 7 8 17 15
22 15 5 0 24 11 41 24 52 38 56 38 52 11 -1 -14 2 -25 6 -25 5 0 9 13 9 29 0
16 5 31 12 33 8 3 7 6 -3 10 -7 3 -22 -3 -33 -13z"/>
<path d="M969 2603 c-13 -16 -12 -17 4 -4 9 7 17 15 17 17 0 8 -8 3 -21 -13z"/>
<path d="M1546 2603 c-6 -14 -5 -15 5 -6 7 7 10 15 7 18 -3 3 -9 -2 -12 -12z"/>
<path d="M1570 2609 c0 -5 5 -7 10 -4 6 3 10 8 10 11 0 2 -4 4 -10 4 -5 0 -10
-5 -10 -11z"/>
<path d="M1385 2600 c-3 -5 -2 -10 4 -10 5 0 13 5 16 10 3 6 2 10 -4 10 -5 0
-13 -4 -16 -10z"/>
<path d="M1603 2595 c-8 -22 -3 -24 37 -16 22 4 30 10 22 14 -6 5 -16 5 -22 2
-5 -3 -10 -1 -10 4 0 17 -20 13 -27 -4z"/>
<path d="M1051 2574 c1 -16 3 -21 6 -12 3 11 10 15 21 11 18 -7 17 -5 -10 16
-16 12 -18 11 -17 -15z"/>
<path d="M1530 2570 c12 -8 10 -10 -10 -10 -19 0 -21 -3 -11 -9 9 -6 21 -5 33
2 24 16 23 22 -4 24 -18 2 -20 0 -8 -7z"/>
<path d="M1571 2564 c0 -11 3 -14 6 -6 3 7 2 16 -1 19 -3 4 -6 -2 -5 -13z"/>
<path d="M1325 2560 c3 -5 8 -10 11 -10 2 0 4 5 4 10 0 6 -5 10 -11 10 -5 0
-7 -4 -4 -10z"/>
<path d="M1475 2551 c-3 -5 -1 -12 5 -16 5 -3 10 1 10 9 0 18 -6 21 -15 7z"/>
<path d="M787 2536 c-8 -21 -119 -91 -139 -88 -10 2 -18 -1 -18 -6 0 -5 -16
-27 -35 -48 -39 -42 -39 -60 1 -23 14 13 27 23 30 22 13 -8 25 -1 20 12 -4 11
2 15 24 15 20 0 30 5 30 15 0 9 6 12 17 8 12 -5 15 -2 10 10 -5 15 -3 16 12 7
14 -7 20 -6 25 6 3 8 2 12 -4 9 -6 -3 -10 -2 -10 3 0 6 11 13 25 16 16 4 23
11 19 18 -5 8 -2 9 10 5 14 -6 15 -3 6 13 -13 24 -16 25 -23 6z"/>
<path d="M858 2533 c7 -3 16 -2 19 1 4 3 -2 6 -13 5 -11 0 -14 -3 -6 -6z"/>
<path d="M1410 2484 c0 -11 23 -34 48 -48 6 -4 12 -2 12 3 0 6 -7 11 -16 11
-9 0 -12 5 -8 13 4 6 4 9 -1 5 -4 -4 -14 0 -21 10 -7 9 -14 12 -14 6z"/>
<path d="M1488 2413 c7 -3 16 -2 19 1 4 3 -2 6 -13 5 -11 0 -14 -3 -6 -6z"/>
<path d="M1528 2403 c7 -3 16 -2 19 1 4 3 -2 6 -13 5 -11 0 -14 -3 -6 -6z"/>
<path d="M1010 2355 c-7 -8 -16 -13 -20 -10 -5 3 -11 1 -15 -5 -3 -5 -1 -10 5
-10 6 0 8 -6 4 -12 -3 -7 6 0 21 15 15 16 25 30 22 33 -2 2 -10 -2 -17 -11z"/>
<path d="M971 2254 c0 -11 3 -14 6 -6 3 7 2 16 -1 19 -3 4 -6 -2 -5 -13z"/>
<path d="M1445 2240 c-9 -14 -7 -16 28 -24 19 -4 26 -3 22 4 -3 5 -2 10 3 10
6 0 13 -7 16 -16 9 -22 8 -24 -9 -24 -8 0 -15 -8 -14 -17 0 -11 3 -13 6 -6 3
8 14 11 29 7 28 -7 31 1 9 23 -21 20 -12 28 15 13 16 -9 25 -9 33 -1 11 11 -2
16 -27 12 -4 -1 -15 4 -23 10 -19 17 -63 20 -63 6 0 -8 -3 -7 -9 2 -6 10 -10
10 -16 1z"/>
<path d="M1540 2246 c0 -8 51 -13 56 -5 3 5 -9 9 -25 9 -17 0 -31 -2 -31 -4z"/>
<path d="M1099 2233 c-1 -5 -1 -11 0 -15 0 -4 -10 -10 -24 -14 -14 -3 -25 -10
-25 -14 0 -17 54 7 61 28 5 13 4 22 -1 22 -6 0 -11 -3 -11 -7z"/>
<path d="M1415 2231 c-3 -5 -1 -12 5 -16 5 -3 10 1 10 9 0 18 -6 21 -15 7z"/>
<path d="M972 2216 c-12 -7 -20 -14 -18 -17 3 -3 -27 -36 -66 -75 -39 -38 -68
-63 -64 -56 4 6 2 12 -3 12 -6 0 -11 -6 -11 -14 0 -8 -7 -22 -16 -31 -13 -12
-19 -13 -31 -4 -12 11 -13 8 -7 -16 6 -24 4 -27 -9 -22 -9 3 -19 2 -22 -3 -4
-6 -1 -10 5 -10 6 0 8 -5 5 -11 -4 -6 -9 -8 -12 -5 -3 3 -16 -17 -29 -44 -13
-28 -28 -50 -34 -50 -5 0 -10 -4 -10 -9 0 -18 42 2 52 25 6 13 15 21 19 18 5
-3 9 2 9 10 0 10 6 13 15 10 10 -4 15 0 15 11 0 9 4 14 9 10 5 -3 13 0 17 6 4
7 3 9 -2 6 -6 -3 -16 -2 -24 4 -12 7 -10 9 8 9 12 0 22 5 22 11 0 5 -6 7 -12
4 -7 -4 -3 2 9 13 12 11 20 22 17 24 -2 3 2 11 11 18 8 7 15 9 15 4 0 -4 11 3
25 16 14 13 25 29 25 37 0 7 4 13 8 13 5 0 32 22 60 49 28 27 53 46 56 43 3
-3 6 0 6 6 0 18 -14 21 -38 8z"/>
<path d="M1640 2180 c-9 -6 -10 -10 -3 -10 6 0 15 5 18 10 8 12 4 12 -15 0z"/>
<path d="M1020 2110 c-8 -5 -12 -12 -9 -15 4 -3 12 1 19 10 14 17 11 19 -10 5z"/>
<path d="M1530 2103 c0 -7 -7 -10 -17 -7 -14 5 -15 4 -4 -4 7 -5 9 -12 5 -14
-5 -3 -3 -3 4 -1 8 1 22 3 33 3 10 0 19 5 19 11 0 5 -5 7 -11 3 -6 -3 -15 0
-20 7 -6 10 -9 10 -9 2z"/>
<path d="M1615 2092 c-11 -2 -29 -11 -40 -18 -19 -13 -18 -14 8 -14 19 0 26 4
21 11 -5 8 3 10 25 7 17 -2 31 -1 31 3 0 10 -22 16 -45 11z"/>
<path d="M945 2060 c-3 -5 -1 -10 4 -10 6 0 11 5 11 10 0 6 -2 10 -4 10 -3 0
-8 -4 -11 -10z"/>
<path d="M846 2015 c4 -8 11 -15 16 -15 6 0 5 6 -2 15 -7 8 -14 15 -16 15 -2
0 -1 -7 2 -15z"/>
<path d="M807 1981 c-3 -13 -1 -18 9 -14 7 2 10 11 7 19 -7 19 -10 18 -16 -5z"/>
<path d="M1575 1960 c3 -5 12 -7 20 -3 21 7 19 13 -6 13 -11 0 -18 -4 -14 -10z"/>
<path d="M1528 1949 c-5 -16 20 -44 40 -44 6 0 12 5 11 10 0 6 -7 9 -15 7 -8
-2 -18 7 -22 19 -6 16 -10 18 -14 8z"/>
<path d="M1610 1816 c0 -9 7 -12 21 -9 16 4 17 8 7 14 -19 13 -28 11 -28 -5z"/>
<path d="M1006 1783 c2 -7 -4 -13 -14 -13 -15 0 -15 -2 -2 -10 8 -5 22 -10 30
-10 12 0 12 2 2 9 -8 4 -13 11 -12 15 1 4 0 10 -3 14 -2 4 -2 1 -1 -5z"/>
<path d="M1112 1745 c-12 -14 -8 -19 11 -16 12 2 8 -17 -8 -33 -8 -8 -11 -17
-7 -20 11 -7 40 55 35 72 -6 16 -15 15 -31 -3z"/>
<path d="M992 1715 c0 -16 2 -22 5 -12 2 9 2 23 0 30 -3 6 -5 -1 -5 -18z"/>
<path d="M1033 1670 c-2 -18 24 -36 35 -25 3 3 0 5 -6 5 -7 0 -12 6 -12 14 0
22 -16 27 -17 6z"/>
<path d="M1060 1669 c0 -5 5 -7 10 -4 6 3 10 8 10 11 0 2 -4 4 -10 4 -5 0 -10
-5 -10 -11z"/>
<path d="M1617 1629 c7 -7 15 -10 18 -7 3 3 -2 9 -12 12 -14 6 -15 5 -6 -5z"/>
<path d="M1053 1606 c0 -18 3 -24 9 -18 7 7 7 16 0 28 -8 14 -9 13 -9 -10z"/>
<path d="M1515 1619 c-4 -6 -5 -12 -2 -15 2 -3 7 2 10 11 7 17 1 20 -8 4z"/>
<path d="M939 1557 c-9 -7 -14 -18 -11 -26 3 -9 0 -11 -8 -6 -10 6 -12 4 -7
-7 3 -9 -3 -25 -14 -36 -10 -12 -19 -26 -19 -33 0 -6 -7 -9 -15 -5 -8 3 -15 2
-16 -2 0 -4 -2 -14 -3 -22 -2 -8 -6 -42 -9 -75 l-7 -60 24 48 c13 27 41 67 62
89 67 69 74 78 66 78 -5 0 -18 -11 -30 -25 -13 -15 -28 -23 -34 -19 -8 5 -9 2
-5 -9 3 -10 2 -17 -3 -17 -11 0 -13 11 -4 34 3 9 11 13 17 9 6 -3 7 -1 3 5 -4
6 3 29 14 52 22 44 22 45 -1 27z m-59 -137 c0 -5 -4 -10 -10 -10 -5 0 -10 5
-10 10 0 6 5 10 10 10 6 0 10 -4 10 -10z"/>
<path d="M1474 1525 c25 -19 37 -19 30 0 -4 8 -16 15 -28 15 -21 -1 -21 -1 -2
-15z"/>
<path d="M850 1475 c0 -8 2 -15 4 -15 2 0 6 7 10 15 3 8 1 15 -4 15 -6 0 -10
-7 -10 -15z"/>
<path d="M1920 1448 c0 -10 5 -18 11 -18 5 0 7 5 3 11 -5 8 3 10 24 7 20 -3
28 0 25 8 -7 19 -63 12 -63 -8z"/>
<path d="M1858 1448 c-8 -7 -18 -21 -21 -30 -5 -13 0 -17 21 -16 15 0 37 -3
50 -7 26 -9 29 10 6 40 -15 19 -15 19 -12 1 2 -10 -3 -21 -11 -24 -10 -3 -13
2 -9 22 6 29 0 32 -24 14z"/>
<path d="M1130 1424 c0 -6 6 -17 14 -23 11 -9 15 -7 19 9 3 11 1 20 -4 20 -5
0 -9 -6 -9 -12 0 -9 -4 -8 -10 2 -5 8 -10 10 -10 4z"/>
<path d="M1260 1420 c0 -5 5 -10 10 -10 6 0 10 5 10 10 0 6 -4 10 -10 10 -5 0
-10 -4 -10 -10z"/>
<path d="M1790 1410 c-14 -11 -20 -20 -15 -20 6 0 21 9 35 20 14 11 21 20 15
20 -5 0 -21 -9 -35 -20z"/>
<path d="M1271 1384 c0 -11 3 -14 6 -6 3 7 2 16 -1 19 -3 4 -6 -2 -5 -13z"/>
<path d="M1935 1330 c-3 -5 -1 -10 4 -10 6 0 11 5 11 10 0 6 -2 10 -4 10 -3 0
-8 -4 -11 -10z"/>
<path d="M1836 1298 c5 -7 2 -9 -8 -6 -9 4 -15 0 -15 -8 0 -10 12 -14 36 -13
29 0 32 2 16 9 -11 5 -14 9 -7 9 21 1 13 21 -9 21 -13 0 -18 -4 -13 -12z"/>
<path d="M2470 1295 c-7 -8 -28 -15 -46 -15 -19 0 -34 -4 -34 -8 0 -5 -14 -6
-31 -4 -22 3 -30 1 -25 -7 4 -6 4 -21 1 -32 -5 -16 -9 -18 -15 -9 -4 7 -13 9
-19 6 -6 -4 -8 -12 -5 -18 5 -7 2 -8 -6 -3 -8 5 -18 1 -26 -10 -8 -11 -21 -16
-34 -12 -11 3 -18 1 -14 -4 3 -5 -4 -9 -15 -9 -12 0 -21 -4 -21 -10 0 -5 -5
-10 -10 -10 -6 0 -33 -11 -61 -24 -28 -14 -58 -22 -66 -19 -10 4 -14 2 -10 -4
4 -6 1 -13 -6 -16 -7 -2 -13 -16 -15 -31 -1 -19 3 -26 16 -25 11 0 12 2 4 6
-10 4 -9 9 4 24 20 22 49 26 41 5 -9 -23 3 -26 24 -5 11 11 17 25 13 30 -4 8
-10 7 -16 -2 -8 -11 -9 -11 -5 1 3 10 14 14 35 12 24 -2 35 3 53 27 16 22 26
28 35 21 8 -7 13 -6 18 5 3 8 11 15 18 15 9 0 9 -3 2 -8 -6 -4 -13 -15 -17
-24 -3 -10 -15 -18 -25 -18 -11 0 -18 -7 -18 -19 0 -18 6 -17 61 14 58 33 72
51 50 68 -6 5 -4 7 5 4 8 -2 14 -10 13 -16 -4 -17 9 -13 37 10 14 11 19 18 13
14 -7 -3 -13 -1 -13 4 0 6 8 11 18 12 26 1 73 31 96 62 21 28 18 48 -4 22z
m-185 -125 c3 -5 1 -10 -4 -10 -6 0 -11 5 -11 10 0 6 2 10 4 10 3 0 8 -4 11
-10z m-120 -50 c-3 -5 -14 -10 -23 -9 -14 0 -13 2 3 9 27 11 27 11 20 0z"/>
<path d="M1166 1238 c-3 -29 -6 -69 -6 -88 0 -26 -3 -31 -10 -20 -8 13 -10 13
-10 -2 0 -9 5 -20 10 -23 6 -3 10 -16 10 -28 -1 -21 -1 -21 -15 3 -14 25 -14
25 -15 -16 0 -23 7 -61 15 -84 8 -23 15 -54 15 -68 0 -14 2 -23 5 -20 5 5 15
398 10 398 -1 0 -5 -24 -9 -52z"/>
<path d="M2263 1250 c-13 -5 -23 -12 -23 -15 0 -4 5 -3 11 1 6 3 15 1 19 -5 5
-10 10 -9 21 2 8 7 20 12 28 9 8 -3 11 0 7 7 -8 13 -32 13 -63 1z"/>
<path d="M2133 1224 c-18 -8 -33 -19 -33 -24 0 -7 6 -7 19 -1 10 6 22 7 26 3
5 -4 5 -1 1 6 -5 8 0 12 13 12 12 0 21 5 21 10 0 13 -7 12 -47 -6z"/>
<path d="M2245 1209 c-4 -6 -5 -12 -2 -15 2 -3 7 2 10 11 7 17 1 20 -8 4z"/>
<path d="M2050 1173 c0 -2 8 -11 19 -22 18 -18 19 -18 17 3 0 14 -8 22 -18 22
-10 0 -18 -2 -18 -3z"/>
<path d="M3295 1169 c-27 -5 -81 -11 -118 -13 -38 -3 -79 -11 -92 -20 -14 -9
-26 -12 -30 -6 -3 5 -15 6 -28 1 -12 -4 -27 -6 -34 -4 -6 2 -14 -1 -18 -6 -3
-7 3 -11 14 -11 12 0 30 -9 41 -20 11 -11 28 -20 38 -21 16 0 16 -1 -1 -8 -10
-4 -18 -11 -17 -16 1 -5 -3 -11 -9 -13 -6 -2 -11 2 -11 10 0 10 -3 9 -10 -2
-8 -13 -12 -13 -32 -1 -22 13 -22 13 -8 -4 14 -17 13 -18 -3 -12 -10 4 -16 3
-12 -2 3 -5 -1 -11 -7 -14 -7 -2 -10 -7 -6 -11 3 -4 16 -2 29 4 26 14 79 20
79 8 0 -4 12 -6 28 -4 15 2 21 1 15 -1 -7 -2 -13 -9 -13 -14 0 -6 -6 -7 -12
-3 -8 5 -7 0 2 -11 13 -16 15 -16 18 -2 2 9 9 14 18 10 17 -6 56 25 48 38 -3
5 1 6 9 4 7 -3 46 25 90 65 43 38 82 70 87 70 6 0 10 5 10 10 0 6 -3 9 -7 9
-5 -1 -30 -6 -58 -10z m-177 -70 c-1 -16 -4 -26 -8 -20 -3 6 -17 9 -30 6 -23
-4 -50 9 -50 26 0 5 5 9 11 9 5 0 8 -4 5 -9 -3 -5 1 -11 9 -14 8 -4 16 2 20
14 4 10 15 19 25 19 14 0 18 -7 18 -31z m52 17 c0 -2 -7 -7 -16 -10 -8 -3 -12
-2 -9 4 6 10 25 14 25 6z m-66 -84 c2 -4 -6 -9 -20 -10 -13 -1 -24 3 -24 8 0
12 37 14 44 2z"/>
<path d="M3090 1109 c0 -5 5 -7 10 -4 6 3 10 8 10 11 0 2 -4 4 -10 4 -5 0 -10
-5 -10 -11z"/>
<path d="M1185 1150 c3 -5 8 -10 11 -10 2 0 4 5 4 10 0 6 -5 10 -11 10 -5 0
-7 -4 -4 -10z"/>
<path d="M1364 1149 c-3 -6 -2 -15 3 -20 5 -5 9 -1 9 11 0 23 -2 24 -12 9z"/>
<path d="M1105 1140 c3 -5 8 -10 11 -10 2 0 4 5 4 10 0 6 -5 10 -11 10 -5 0
-7 -4 -4 -10z"/>
<path d="M2014 1135 c-4 -8 -10 -12 -15 -9 -14 8 -11 -2 5 -15 11 -9 15 -6 18
14 6 28 1 34 -8 10z"/>
<path d="M2047 1136 c-4 -10 -1 -13 8 -9 8 3 12 9 9 14 -7 12 -11 11 -17 -5z"/>
<path d="M2600 1120 c0 -5 5 -10 11 -10 5 0 7 5 4 10 -3 6 -8 10 -11 10 -2 0
-4 -4 -4 -10z"/>
<path d="M2566 1111 c-4 -6 -2 -11 3 -11 6 0 11 -8 12 -17 0 -10 3 -13 5 -6 8
18 -11 49 -20 34z"/>
<path d="M2967 1093 c-4 -3 -7 -11 -7 -17 0 -6 5 -5 12 2 6 6 9 14 7 17 -3 3
-9 2 -12 -2z"/>
<path d="M2524 1079 c-3 -6 -2 -15 3 -20 5 -5 9 -1 10 11 2 22 -2 25 -13 9z"/>
<path d="M1395 1009 c0 -37 5 -43 33 -40 17 3 15 -28 -3 -35 -22 -9 -18 -23 5
-17 16 4 20 1 19 -18 0 -13 -3 -18 -6 -11 -2 6 -10 12 -16 12 -7 -1 -1 -10 13
-22 18 -15 20 -19 6 -15 -35 13 -14 -55 67 -210 21 -42 34 -37 19 6 -7 19 -7
31 -1 31 5 0 9 23 9 51 0 29 -4 48 -10 44 -5 -3 -6 -13 -3 -22 4 -11 3 -14 -6
-9 -7 5 -9 15 -6 25 11 28 16 78 6 62 -7 -12 -13 -12 -24 -3 -7 7 -17 9 -21 5
-10 -11 5 29 18 46 8 11 8 13 -1 8 -8 -5 -15 2 -19 20 -3 15 -8 36 -11 45 -2
10 -7 30 -9 45 -5 27 -20 43 -39 42 -5 0 -4 -3 3 -6 6 -2 9 -9 6 -15 -4 -6 0
-14 7 -19 7 -4 10 -11 7 -15 -4 -3 -15 7 -25 24 l-19 31 1 -40z m65 -203 c0
-26 -6 -18 -14 19 -5 22 -4 26 4 15 5 -8 10 -24 10 -34z m48 -11 c-3 -3 -9 2
-12 12 -6 14 -5 15 5 6 7 -7 10 -15 7 -18z"/>
<path d="M2862 1041 c-11 -7 -11 -9 0 -14 9 -3 15 1 15 9 0 8 -1 14 -1 14 -1
0 -7 -4 -14 -9z"/>
<path d="M1520 1006 c0 -8 4 -17 9 -20 5 -4 7 3 4 14 -6 23 -13 26 -13 6z"/>
<path d="M2905 1010 c3 -5 8 -10 11 -10 2 0 4 5 4 10 0 6 -5 10 -11 10 -5 0
-7 -4 -4 -10z"/>
<path d="M3030 996 c0 -2 8 -10 18 -17 15 -13 16 -12 3 4 -13 16 -21 21 -21
13z"/>
<path d="M2530 960 c0 -5 5 -10 11 -10 5 0 7 5 4 10 -3 6 -8 10 -11 10 -2 0
-4 -4 -4 -10z"/>
<path d="M3014 932 c-18 -13 -17 -14 6 -7 30 9 46 22 27 22 -8 0 -23 -7 -33
-15z"/>
<path d="M1748 933 c7 -3 16 -2 19 1 4 3 -2 6 -13 5 -11 0 -14 -3 -6 -6z"/>
<path d="M2871 904 c0 -11 3 -14 6 -6 3 7 2 16 -1 19 -3 4 -6 -2 -5 -13z"/>
<path d="M1510 896 c0 -2 7 -7 16 -10 8 -3 12 -2 9 4 -6 10 -25 14 -25 6z"/>
<path d="M1685 879 c-5 -8 -4 -10 3 -5 15 9 16 -6 1 -21 -6 -6 -8 -17 -3 -24
5 -9 10 -4 16 16 8 31 -4 56 -17 34z"/>
<path d="M1495 860 c-3 -5 -1 -10 4 -10 6 0 11 5 11 10 0 6 -2 10 -4 10 -3 0
-8 -4 -11 -10z"/>
<path d="M1759 828 c-13 -9 -11 -14 13 -38 21 -21 27 -36 24 -58 -2 -23 0 -29
12 -25 12 5 12 2 3 -15 -15 -28 -14 -37 3 -23 11 9 15 8 20 -5 9 -22 9 -23
-19 -19 -20 2 -23 -1 -14 -11 6 -7 18 -10 26 -7 11 4 14 2 9 -5 -6 -10 7 -25
84 -97 l33 -30 -7 35 c-3 19 -12 40 -20 45 -7 6 -11 15 -9 21 2 7 -3 18 -11
27 -8 8 -13 17 -10 20 3 2 -1 16 -7 31 -9 20 -17 25 -33 21 -19 -5 -19 -5 -3
5 20 13 23 50 3 50 -8 0 -17 -6 -20 -12 -4 -7 -4 -2 -2 11 6 31 -10 62 -29 55
-9 -4 -18 2 -22 14 -6 15 -12 17 -24 10z m98 -220 c-3 -8 -6 -5 -6 6 -1 11 2
17 5 13 3 -3 4 -12 1 -19z"/>
<path d="M2500 800 c0 -11 57 -23 70 -15 5 3 10 1 10 -5 0 -7 7 -10 15 -6 8 3
15 0 15 -6 0 -7 6 -3 14 7 13 18 15 18 39 2 15 -9 39 -17 54 -17 l28 1 -30 16
c-16 9 -55 18 -85 20 -30 2 -72 5 -92 7 -21 2 -38 0 -38 -4z"/>
<path d="M1750 758 c-10 -21 -10 -21 3 -6 8 10 18 14 22 10 5 -4 5 -1 1 6 -10
17 -14 15 -26 -10z"/>
<path d="M1715 749 c-4 -6 -5 -12 -2 -15 2 -3 7 2 10 11 7 17 1 20 -8 4z"/>
<path d="M2210 741 c5 -11 15 -23 21 -27 6 -3 3 5 -6 20 -20 30 -30 35 -15 7z"/>
<path d="M2490 699 c0 -5 5 -7 10 -4 6 3 10 8 10 11 0 2 -4 4 -10 4 -5 0 -10
-5 -10 -11z"/>
<path d="M2510 681 c0 -6 4 -13 10 -16 6 -3 7 1 4 9 -7 18 -14 21 -14 7z"/>
<path d="M2770 678 c0 -4 6 -8 14 -8 8 0 17 4 20 8 2 4 -4 8 -15 8 -10 0 -19
-4 -19 -8z"/>
<path d="M2730 638 c0 -7 9 -19 21 -26 19 -12 19 -11 10 7 -14 26 -31 36 -31
19z"/>
<path d="M2151 624 c0 -11 3 -14 6 -6 3 7 2 16 -1 19 -3 4 -6 -2 -5 -13z"/>
</g>
</svg>
